<?xml version="1.0" encoding="UTF-8"?>
<svg width="241px" height="298px" viewBox="0 0 241 298" version="1.1" xmlns="http://www.w3.org/2000/svg" xmlns:xlink="http://www.w3.org/1999/xlink">
    <!-- Generator: Sketch 63.1 (92452) - https://sketch.com -->
    <title>提问</title>
    <desc>Created with Sketch.</desc>
    <defs>
        <linearGradient x1="-13.4281776%" y1="39.0110784%" x2="91.2184179%" y2="64.7332054%" id="linearGradient-1">
            <stop stop-color="#59D0FC" offset="0%"></stop>
            <stop stop-color="#4B79FF" offset="100%"></stop>
        </linearGradient>
        <linearGradient x1="6.73340148%" y1="10.7432613%" x2="50%" y2="65.5822886%" id="linearGradient-2">
            <stop stop-color="#3470AF" offset="0%"></stop>
            <stop stop-color="#3965CA" offset="100%"></stop>
        </linearGradient>
        <linearGradient x1="100%" y1="15.9090864%" x2="50%" y2="65.0711265%" id="linearGradient-3">
            <stop stop-color="#59D0FC" offset="0%"></stop>
            <stop stop-color="#4B79FF" offset="100%"></stop>
        </linearGradient>
        <linearGradient x1="50%" y1="0%" x2="50%" y2="100%" id="linearGradient-4">
            <stop stop-color="#FFFFFF" offset="0%"></stop>
            <stop stop-color="#4B79FF" offset="100%"></stop>
        </linearGradient>
        <linearGradient x1="29.9104387%" y1="-37.9431975%" x2="50%" y2="100%" id="linearGradient-5">
            <stop stop-color="#59D0FC" offset="0%"></stop>
            <stop stop-color="#4B79FF" offset="100%"></stop>
        </linearGradient>
        <linearGradient x1="50%" y1="0%" x2="50%" y2="100%" id="linearGradient-6">
            <stop stop-color="#97DBF4" offset="0%"></stop>
            <stop stop-color="#537FFF" offset="100%"></stop>
        </linearGradient>
        <linearGradient x1="3.63037205%" y1="8.2244873%" x2="50%" y2="91.7755127%" id="linearGradient-7">
            <stop stop-color="#DEE7FF" offset="0%"></stop>
            <stop stop-color="#C5D4FF" offset="100%"></stop>
        </linearGradient>
        <linearGradient x1="50%" y1="0%" x2="50%" y2="100%" id="linearGradient-8">
            <stop stop-color="#59D0FC" offset="0%"></stop>
            <stop stop-color="#4B79FF" offset="100%"></stop>
        </linearGradient>
    </defs>
    <g id="中昱购买官网" stroke="none" stroke-width="1" fill="none" fill-rule="evenodd">
        <g id="画板" transform="translate(-397.000000, -333.000000)">
            <g id="提问" transform="translate(397.000000, 334.000000)">
                <path d="M35.3392825,197 L241,249.247595 L241,263.446674 C241,266.291248 239.489514,268.921874 237.032814,270.355828 L201.062647,291.351305 C189.203711,298.273264 174.532922,298.259062 162.68741,291.314155 L38.0593382,218.245948 C35.3922346,216.682252 33.8648904,213.721711 34.1364389,210.641962 L35.3392825,197 L35.3392825,197 Z" id="矩形复制-6" fill="url(#linearGradient-1)" opacity="0.364583333"></path>
                <path d="M91.0341185,167.142378 L234.682935,241.02222 C238.612019,243.042982 240.15902,247.866286 238.138257,251.79537 C237.488937,253.05788 236.515342,254.124857 235.317414,254.886773 L213.11229,269.009858 C193.885837,281.238424 169.391855,281.521087 149.888321,269.73947 L40.8593043,203.877653 C37.0774798,201.593144 35.8636662,196.675408 38.1481758,192.893584 C38.8892805,191.666744 39.9463786,190.66154 41.2089399,189.983078 L83.5883699,167.209637 C85.9079563,165.963161 88.6923931,165.938008 91.0341185,167.142378 Z" id="矩形" fill="url(#linearGradient-2)"></path>
                <path d="M88.8941171,183.137195 L213.385071,246.854464 C214.368334,247.35772 214.757457,248.562782 214.2542,249.546046 C214.083325,249.879903 213.822019,250.158986 213.500115,250.351435 L193.06406,262.569034 C187.250035,266.044921 180.025182,266.162571 174.101066,262.877829 L63.4593217,201.530333 C61.0442906,200.191272 60.1720449,197.147978 61.5111065,194.732947 C61.9797392,193.887756 62.6832682,193.196488 63.5365667,192.742786 L81.4934677,183.195022 C83.8026061,181.967243 86.5660743,181.94565 88.8941171,183.137195 Z" id="矩形复制-9" fill="url(#linearGradient-3)" opacity="0.306896391"></path>
                <path d="M104.045761,11.4709417 L181.07191,56.3309112 C187.83818,60.2715814 192,67.5116188 192,75.3417713 L192,233.776789 C192,240.447948 187.292839,246.192405 180.75182,247.503678 L173.287723,249 L173.287723,249 L95.5461266,199.727987 C87.7341101,194.776792 83,186.171491 83,176.922602 L83,23.5687618 C83,15.8367753 89.2680135,9.56876183 97,9.56876183 C99.4754538,9.56876183 101.906647,10.2251234 104.045761,11.4709417 Z" id="矩形复制-11" fill="url(#linearGradient-4)" opacity="0.326822917"></path>
                <path d="M98.0606518,13.4923064 L175.09531,58.4843491 C181.84837,62.4284697 186,69.6610816 186,77.481562 L186,232.251841 C186,239.983827 179.731986,246.251841 172,246.251841 C169.572132,246.251841 167.185996,245.620457 165.07586,244.419679 L90.6463021,202.065348 C82.2101289,197.264722 77,188.305245 77,178.598802 L77,25.5814418 C77,17.8494553 83.2680135,11.5814418 91,11.5814418 C93.4813012,11.5814418 95.9180242,12.2409061 98.0606518,13.4923064 Z" id="矩形" fill="url(#linearGradient-5)"></path>
                <path d="M96.6769827,38.0769004 L169.432624,82.3300111 C175.994566,86.321266 180,93.4457151 180,101.126157 L180,232.102228 C180,234.863651 177.761424,237.102228 175,237.102228 C174.119035,237.102228 173.253709,236.869466 172.491624,236.427508 L99.9430464,194.35415 C89.4555173,188.27208 83,177.065767 83,164.942242 L83,45.7662328 C83,40.79567 87.0294373,36.7662328 92,36.7662328 C93.6496511,36.7662328 95.2675699,37.2196349 96.6769827,38.0769004 Z" id="矩形复制-10" fill="url(#linearGradient-6)"></path>
                <path d="M114.382955,43.9333039 L148.189179,43.9176581 C149.224911,43.9171788 150.064927,44.7564172 150.065406,45.7921497 C150.065406,45.7927284 150.065406,45.7933072 150.065406,45.7938859 C150.064926,46.8308587 149.224413,47.6713713 148.18744,47.6718512 L114.381217,47.687497 C113.345484,47.6879764 112.505469,46.8487379 112.504989,45.8130055 C112.504989,45.8124267 112.504989,45.811848 112.504989,45.8112692 C112.50547,44.7742964 113.345982,43.9337838 114.382955,43.9333039 Z" id="矩形" fill="#AABCFF" transform="translate(131.285198, 45.802578) rotate(31.000000) translate(-131.285198, -45.802578) "></path>
                <path d="M17.9629121,0.452446408 L120.217405,58.0668407 C129.967758,63.5605917 136,73.8832678 136,85.0748135 L136,105.726966 C136,110.145244 132.418278,113.726966 128,113.726966 C126.594044,113.726966 125.212917,113.35644 123.995754,112.652716 L117.380445,108.827957 L117.380445,108.827957 L117.380445,117 L109.747374,104.414761 L25.6726037,55.8054307 C13.2337418,48.6136806 6.37998255,34.6130661 8.32956898,20.3776993 L10.5547333,4.13013538 C10.929423,1.39425 13.4510423,-0.519877302 16.1869277,-0.145187624 C16.8112952,-0.059678172 17.4138699,0.143093397 17.9629121,0.452446408 Z" id="矩形复制-13" fill="url(#linearGradient-7)" opacity="0.175827753"></path>
                <path d="M47.9629121,90.4524464 L150.217405,148.066841 C159.967758,153.560592 166,163.883268 166,175.074814 L166,195.726966 C166,200.145244 162.418278,203.726966 158,203.726966 C156.594044,203.726966 155.212917,203.35644 153.995754,202.652716 L147.380445,198.827957 L147.380445,198.827957 L147.380445,207 L139.747374,194.414761 L55.6726037,145.805431 C43.2337418,138.613681 36.3799826,124.613066 38.329569,110.377699 L40.5547333,94.1301354 C40.929423,91.39425 43.4510423,89.4801227 46.1869277,89.8548124 C46.8112952,89.9403218 47.4138699,90.1430934 47.9629121,90.4524464 Z" id="矩形复制-14" fill="url(#linearGradient-7)" opacity="0.175827753"></path>
                <path d="M9.96291209,5.45244641 L112.217405,63.0668407 C121.967758,68.5605917 128,78.8832678 128,90.0748135 L128,110.726966 C128,115.145244 124.418278,118.726966 120,118.726966 C118.594044,118.726966 117.212917,118.35644 115.995754,117.652716 L109.380445,113.827957 L109.380445,113.827957 L109.380445,122 L101.747374,109.414761 L17.6726037,60.8054307 C5.23374183,53.6136806 -1.62001745,39.6130661 0.329568983,25.3776993 L2.5547333,9.13013538 C2.92942298,6.39425 5.45104228,4.4801227 8.18692766,4.85481238 C8.81129516,4.94032183 9.41386986,5.1430934 9.96291209,5.45244641 Z" id="矩形" fill="url(#linearGradient-8)" opacity="0.807733445"></path>
                <path d="M40.9629121,93.4524464 L143.217405,151.066841 C152.967758,156.560592 159,166.883268 159,178.074814 L159,198.726966 C159,203.145244 155.418278,206.726966 151,206.726966 C149.594044,206.726966 148.212917,206.35644 146.995754,205.652716 L140.380445,201.827957 L140.380445,201.827957 L140.380445,210 L132.747374,197.414761 L48.6726037,148.805431 C36.2337418,141.613681 29.3799826,127.613066 31.329569,113.377699 L33.5547333,97.1301354 C33.929423,94.39425 36.4510423,92.4801227 39.1869277,92.8548124 C39.8112952,92.9403218 40.4138699,93.1430934 40.9629121,93.4524464 Z" id="矩形复制-12" fill="#B6E8FD" opacity="0.670642671"></path>
                <line x1="26.5350877" y1="38.5085421" x2="86.4649123" y2="71.46875" id="直线-3" stroke="#FFFFFF" stroke-width="3" opacity="0.519763765" stroke-linecap="round" stroke-linejoin="round"></line>
                <polyline id="直线-3复制-2" stroke="#FFFFFF" stroke-width="3" opacity="0.519763765" stroke-linecap="round" stroke-linejoin="round" points="57 125 103.934507 150.031737 117 157"></polyline>
                <line x1="26.5350877" y1="48.4935849" x2="86.4649123" y2="80.484375" id="直线-3复制" stroke="#FFFFFF" stroke-width="3" opacity="0.519763765" stroke-linecap="round" stroke-linejoin="round"></line>
                <line x1="96" y1="155" x2="118" y2="167" id="直线-3复制-3" stroke="#FFFFFF" stroke-width="3" opacity="0.519763765" stroke-linecap="round" stroke-linejoin="round"></line>
            </g>
        </g>
    </g>
</svg>