<svg xmlns="http://www.w3.org/2000/svg" xmlns:xlink="http://www.w3.org/1999/xlink" viewBox="0 0 1100.38 453.45"><defs><style>.cls-1{opacity:0.9;fill:url(#未命名的渐变_16);}.cls-2{opacity:0.8;}.cls-3{fill:#fff;}</style><linearGradient id="未命名的渐变_16" x1="905.81" y1="-58.73" x2="905.81" y2="335.1" gradientTransform="translate(-354.96 359.24) rotate(-17.62)" gradientUnits="userSpaceOnUse"><stop offset="0" stop-color="#7f9af9"/><stop offset="0.49" stop-color="#6583f7"/><stop offset="1" stop-color="#4242ca"/></linearGradient></defs><g id="图层_2" data-name="图层 2"><g id="图层_1-2" data-name="图层 1"><path class="cls-1" d="M1083.63,254,467.45,449.68a80.26,80.26,0,0,1-63.57-6.5L12.26,223.41C-6,213.13-3.27,186,16.75,179.59L632.93,3.76a80.26,80.26,0,0,1,63.57,6.51L1088.12,210.2C1106.44,220.48,1103.66,247.67,1083.63,254Z"/><g class="cls-2"><polygon class="cls-3" points="601.53 365.13 629.16 357.21 604.57 342.32 576.94 350.25 601.53 365.13"/><polygon class="cls-3" points="539.73 382.87 567.36 374.94 542.77 360.05 515.14 367.98 539.73 382.87"/><polygon class="cls-3" points="475.86 401.19 503.49 393.26 478.9 378.38 451.27 386.3 475.86 401.19"/></g></g></g></svg>